<svg width="56" height="14" viewBox="0 0 56 14" fill="none" xmlns="http://www.w3.org/2000/svg">
<rect width="56" height="14" />
<path d="M8.688 4.064C8.736 3.896 8.808 3.76 8.904 3.656C9 3.544 9.104 3.488 9.216 3.488C9.488 3.488 9.684 3.54 9.804 3.644C9.924 3.748 9.984 3.928 9.984 4.184C9.984 4.256 9.928 4.46 9.816 4.796C9.568 5.556 9.296 6.496 9 7.616C8.928 7.872 8.868 8.096 8.82 8.288C8.78 8.48 8.744 8.64 8.712 8.768C8.52 9.592 8.352 10.212 8.208 10.628C8.16 10.748 8.076 10.844 7.956 10.916C7.836 10.98 7.708 11.012 7.572 11.012C7.436 11.012 7.3 10.984 7.164 10.928C7.036 10.864 6.944 10.792 6.888 10.712C6.64 10.224 6.332 9.56 5.964 8.72C5.604 7.872 5.324 7.132 5.124 6.5C4.628 7.756 4.184 8.968 3.792 10.136C3.768 10.208 3.74 10.288 3.708 10.376C3.684 10.456 3.656 10.54 3.624 10.628C3.568 10.748 3.488 10.844 3.384 10.916C3.28 10.98 3.164 11.012 3.036 11.012C2.892 11.012 2.752 10.984 2.616 10.928C2.48 10.864 2.388 10.792 2.34 10.712C2.236 10.536 2.124 10.264 2.004 9.896C1.892 9.528 1.74 9.012 1.548 8.348L1.248 7.328C1.04 6.664 0.86 5.984 0.708 5.288C0.556 4.592 0.48 4.176 0.48 4.04C0.48 3.872 0.564 3.74 0.732 3.644C0.9 3.54 1.068 3.488 1.236 3.488C1.332 3.488 1.432 3.52 1.536 3.584C1.64 3.64 1.708 3.74 1.74 3.884C2.02 5.38 2.432 7.116 2.976 9.092C3.184 8.596 3.412 7.992 3.66 7.28C3.916 6.568 4.16 5.876 4.392 5.204L4.512 4.844C4.544 4.724 4.624 4.632 4.752 4.568C4.888 4.496 5.024 4.46 5.16 4.46C5.336 4.46 5.48 4.504 5.592 4.592C5.704 4.68 5.776 4.776 5.808 4.88C5.816 4.912 5.976 5.388 6.288 6.308C6.6 7.228 6.972 8.156 7.404 9.092C7.564 8.62 7.756 7.864 7.98 6.824L8.16 6.032C8.376 5.184 8.552 4.528 8.688 4.064ZM16.0496 9.368C16.2016 9.368 16.3136 9.428 16.3856 9.548C16.4656 9.66 16.5056 9.784 16.5056 9.92C16.5056 10.088 16.4776 10.208 16.4216 10.28C16.3736 10.344 16.2776 10.412 16.1336 10.484C15.7976 10.644 15.3816 10.772 14.8856 10.868C14.3896 10.964 13.8576 11.012 13.2896 11.012C12.5776 11.012 12.0536 10.892 11.7176 10.652C11.3896 10.412 11.1856 10.124 11.1056 9.788C11.0336 9.444 10.9976 8.996 10.9976 8.444C10.9976 7.852 11.0216 7.272 11.0696 6.704C11.1176 6.128 11.2016 5.396 11.3216 4.508C11.3776 4.124 11.5296 3.848 11.7776 3.68C12.0256 3.504 12.2976 3.416 12.5936 3.416C12.8416 3.416 13.2456 3.408 13.8056 3.392L14.8496 3.38C15.2816 3.38 15.5936 3.392 15.7856 3.416C16.0256 3.464 16.2016 3.52 16.3136 3.584C16.4336 3.64 16.4936 3.74 16.4936 3.884C16.4936 4.044 16.4376 4.2 16.3256 4.352C16.2216 4.504 16.0616 4.58 15.8456 4.58C15.5976 4.58 15.2416 4.564 14.7776 4.532C14.3136 4.5 13.9656 4.484 13.7336 4.484C13.5336 4.484 13.3376 4.496 13.1456 4.52C12.9216 4.536 12.7616 4.564 12.6656 4.604C12.5696 4.644 12.5136 4.712 12.4976 4.808C12.3856 5.632 12.3296 6.24 12.3296 6.632C12.5136 6.656 12.6936 6.668 12.8696 6.668C13.0936 6.668 13.3336 6.656 13.5896 6.632C13.8456 6.608 14.0096 6.592 14.0816 6.584C14.5056 6.544 14.8696 6.524 15.1736 6.524C15.3496 6.524 15.4816 6.556 15.5696 6.62C15.6656 6.684 15.7136 6.772 15.7136 6.884C15.7136 7.06 15.6656 7.196 15.5696 7.292C15.4816 7.388 15.3216 7.46 15.0896 7.508C14.8096 7.564 14.4616 7.608 14.0456 7.64C13.6376 7.672 13.2376 7.688 12.8456 7.688C12.7096 7.688 12.5216 7.68 12.2816 7.664C12.2576 8.152 12.2456 8.604 12.2456 9.02C12.2456 9.588 12.6216 9.872 13.3736 9.872C13.7736 9.872 14.1056 9.844 14.3696 9.788C14.6336 9.732 14.9376 9.652 15.2816 9.548C15.6016 9.428 15.8576 9.368 16.0496 9.368ZM23.9907 8.576C23.9907 9.024 23.8187 9.452 23.4747 9.86C23.1387 10.26 22.7107 10.576 22.1907 10.808C21.9667 10.88 21.6827 10.94 21.3387 10.988C20.9947 11.028 20.6467 11.052 20.2947 11.06C19.6067 11.06 18.9667 10.964 18.3747 10.772C18.2707 10.748 18.1507 10.68 18.0147 10.568C17.8787 10.456 17.8147 10.308 17.8227 10.124V9.716C17.8227 9.268 17.8107 8.836 17.7867 8.42C17.7707 7.876 17.7627 7.46 17.7627 7.172L17.7507 5.816C17.7507 5.336 17.7667 4.852 17.7987 4.364C17.8067 4.116 17.8987 3.908 18.0747 3.74C18.2587 3.564 18.4867 3.456 18.7587 3.416C18.8627 3.408 19.0507 3.404 19.3227 3.404L20.4747 3.416C21.0267 3.416 21.5187 3.488 21.9507 3.632C22.3827 3.776 22.7547 4.008 23.0667 4.328C23.1707 4.448 23.2547 4.608 23.3187 4.808C23.3827 5 23.4147 5.188 23.4147 5.372C23.3907 6.02 23.0187 6.548 22.2987 6.956C22.8747 7.028 23.2987 7.208 23.5707 7.496C23.8507 7.784 23.9907 8.144 23.9907 8.576ZM19.4547 6.668C19.5347 6.66 19.6627 6.656 19.8387 6.656H20.3787C20.6187 6.656 20.7867 6.648 20.8827 6.632C21.6987 6.448 22.1067 6.124 22.1067 5.66C22.1067 5.54 22.0867 5.412 22.0467 5.276C22.0147 5.14 21.9707 5.044 21.9147 4.988C21.7067 4.788 21.5107 4.66 21.3267 4.604C21.1427 4.54 20.8707 4.508 20.5107 4.508C19.8147 4.508 19.3147 4.544 19.0107 4.616L19.0227 6.68L19.4547 6.668ZM20.0067 10.052C20.8387 10.052 21.4907 9.948 21.9627 9.74C22.4427 9.532 22.6827 9.124 22.6827 8.516C22.6827 8.276 22.5067 8.08 22.1547 7.928C21.8027 7.768 21.4187 7.688 21.0027 7.688C20.4907 7.688 20.1307 7.7 19.9227 7.724C19.7467 7.74 19.6267 7.748 19.5627 7.748C19.4427 7.748 19.3587 7.744 19.3107 7.736C19.2707 7.736 19.2227 7.736 19.1667 7.736C19.1187 7.728 19.0667 7.728 19.0107 7.736L19.0227 8.132C19.0307 8.228 19.0427 8.492 19.0587 8.924C19.0827 9.348 19.0867 9.648 19.0707 9.824C19.2547 9.904 19.4147 9.964 19.5507 10.004C19.6867 10.036 19.8387 10.052 20.0067 10.052ZM30.7208 8.828C30.7208 9.204 30.6328 9.528 30.4568 9.8C30.2888 10.064 30.0088 10.308 29.6168 10.532C29.3528 10.692 29.0448 10.812 28.6928 10.892C28.3408 10.972 27.9848 11.012 27.6248 11.012C27.2568 11.012 26.8008 10.892 26.2568 10.652C25.8648 10.46 25.5528 10.232 25.3208 9.968C25.0968 9.704 24.9848 9.416 24.9848 9.104C24.9848 8.888 25.0328 8.732 25.1288 8.636C25.2248 8.532 25.3808 8.48 25.5968 8.48C25.7088 8.48 25.8248 8.528 25.9448 8.624C26.0648 8.712 26.1368 8.8 26.1608 8.888C26.2728 9.216 26.4688 9.468 26.7488 9.644C27.0288 9.812 27.3768 9.896 27.7928 9.896C28.2728 9.896 28.6728 9.808 28.9928 9.632C29.3208 9.456 29.4848 9.22 29.4848 8.924C29.4848 8.636 29.3088 8.38 28.9568 8.156C28.6048 7.932 28.2448 7.776 27.8768 7.688C27.3488 7.544 26.8808 7.372 26.4728 7.172C26.0488 6.964 25.7328 6.708 25.5248 6.404C25.3168 6.1 25.2128 5.78 25.2128 5.444C25.2128 5.132 25.3208 4.816 25.5368 4.496C25.7528 4.168 26.0088 3.932 26.3048 3.788C26.4648 3.708 26.7368 3.624 27.1208 3.536C27.5128 3.44 27.7968 3.392 27.9728 3.392C28.1968 3.392 28.4328 3.42 28.6808 3.476C28.9288 3.532 29.1408 3.612 29.3168 3.716C29.6688 3.916 29.9288 4.096 30.0968 4.256C30.2648 4.416 30.3488 4.616 30.3488 4.856C30.3488 5 30.2928 5.128 30.1808 5.24C30.0768 5.352 29.8928 5.408 29.6288 5.408C29.5648 5.408 29.5008 5.38 29.4368 5.324C29.3728 5.268 29.2928 5.184 29.1968 5.072C29.0688 4.904 28.9448 4.792 28.8248 4.736C28.6968 4.688 28.5368 4.644 28.3448 4.604C28.1528 4.556 27.9728 4.532 27.8048 4.532C27.6128 4.532 27.4128 4.572 27.2048 4.652C26.9968 4.732 26.8208 4.848 26.6768 5C26.5408 5.144 26.4728 5.312 26.4728 5.504C26.4728 5.664 26.5448 5.804 26.6888 5.924C26.8408 6.036 27.0208 6.128 27.2288 6.2C27.4688 6.296 27.7288 6.38 28.0088 6.452C28.3768 6.564 28.6768 6.668 28.9088 6.764C29.1488 6.852 29.3808 6.964 29.6048 7.1C29.9968 7.332 30.2808 7.572 30.4568 7.82C30.6328 8.06 30.7208 8.396 30.7208 8.828ZM37.363 6.704C37.355 6.576 37.351 6.384 37.351 6.128V5.672C37.351 5.368 37.343 5.14 37.327 4.988C37.311 4.86 37.303 4.528 37.303 3.992C37.303 3.8 37.359 3.652 37.471 3.548C37.591 3.436 37.751 3.38 37.951 3.38C38.207 3.38 38.379 3.436 38.467 3.548C38.555 3.66 38.599 3.844 38.599 4.1V4.556L38.587 5.876C38.579 6.132 38.575 6.516 38.575 7.028L38.587 8.012C38.595 8.164 38.599 8.376 38.599 8.648C38.599 8.864 38.607 9.172 38.623 9.572C38.639 9.94 38.647 10.216 38.647 10.4C38.647 10.552 38.603 10.692 38.515 10.82C38.435 10.948 38.323 11.012 38.179 11.012C37.619 11.012 37.339 10.824 37.339 10.448C37.339 10.24 37.347 10.008 37.363 9.752C37.379 9.568 37.387 9.288 37.387 8.912C37.387 8.648 37.379 8.268 37.363 7.772C36.987 7.804 36.339 7.82 35.419 7.82C34.843 7.82 34.395 7.82 34.075 7.82C33.755 7.812 33.523 7.792 33.379 7.76L33.367 9.14C33.367 9.228 33.387 9.464 33.427 9.848C33.467 10.104 33.487 10.328 33.487 10.52C33.487 10.64 33.415 10.756 33.271 10.868C33.135 10.972 33.007 11.024 32.887 11.024C32.599 11.024 32.403 10.956 32.299 10.82C32.195 10.676 32.143 10.46 32.143 10.172L32.131 9.224C32.123 9.112 32.119 8.956 32.119 8.756C32.119 8.46 32.111 8.056 32.095 7.544C32.079 7.08 32.071 6.744 32.071 6.536C32.071 6.224 32.079 5.788 32.095 5.228C32.111 4.7 32.119 4.308 32.119 4.052C32.119 3.796 32.183 3.624 32.311 3.536C32.439 3.448 32.583 3.404 32.743 3.404C33.191 3.404 33.415 3.552 33.415 3.848C33.415 4.376 33.403 4.88 33.379 5.36C33.363 5.968 33.355 6.412 33.355 6.692C33.587 6.748 33.831 6.784 34.087 6.8C34.343 6.816 34.703 6.824 35.167 6.824C36.111 6.824 36.843 6.784 37.363 6.704ZM44.0276 11.012C43.4996 11.012 43.0156 10.948 42.5756 10.82C42.1356 10.684 41.7756 10.488 41.4956 10.232C40.9836 9.776 40.6236 9.28 40.4156 8.744C40.2156 8.2 40.1156 7.508 40.1156 6.668C40.1156 6.492 40.1396 6.328 40.1876 6.176C40.2436 6.016 40.3156 5.84 40.4036 5.648C40.4276 5.592 40.4636 5.504 40.5116 5.384C40.5676 5.256 40.6036 5.14 40.6196 5.036C40.7716 4.756 41.0276 4.488 41.3876 4.232C41.7556 3.976 42.1516 3.772 42.5756 3.62C42.9996 3.46 43.3716 3.38 43.6916 3.38C45.2356 3.38 46.3396 3.908 47.0036 4.964C47.3796 5.58 47.5676 6.2 47.5676 6.824C47.5676 7.632 47.4196 8.34 47.1236 8.948C46.8356 9.556 46.4356 10.028 45.9236 10.364C45.6036 10.556 45.2756 10.712 44.9396 10.832C44.6036 10.952 44.2996 11.012 44.0276 11.012ZM41.3636 7.556C41.3556 7.996 41.4476 8.36 41.6396 8.648C41.8396 8.928 42.1516 9.236 42.5756 9.572C42.8956 9.692 43.1196 9.772 43.2476 9.812C43.3756 9.852 43.5156 9.872 43.6676 9.872C44.1876 9.872 44.6476 9.764 45.0476 9.548C45.4476 9.332 45.7556 9.036 45.9716 8.66C46.1956 8.284 46.3076 7.864 46.3076 7.4C46.3076 6.792 46.2396 6.312 46.1036 5.96C45.9676 5.608 45.7236 5.292 45.3716 5.012C45.1876 4.86 44.9516 4.748 44.6636 4.676C44.3836 4.604 44.0836 4.568 43.7636 4.568C42.9956 4.568 42.3996 4.84 41.9756 5.384C41.5596 5.92 41.3556 6.644 41.3636 7.556ZM52.0038 8.288C51.6918 8.288 51.4278 8.28 51.2118 8.264C51.0038 8.24 50.7278 8.204 50.3838 8.156L50.3718 9.416C50.3638 9.632 50.3598 9.94 50.3598 10.34C50.3598 10.548 50.2998 10.712 50.1798 10.832C50.0678 10.944 49.9398 11 49.7958 11C49.5318 11 49.3358 10.968 49.2078 10.904C49.0798 10.832 49.0158 10.708 49.0158 10.532C49.0158 10.3 49.0358 9.972 49.0758 9.548C49.1638 8.636 49.2078 7.7 49.2078 6.74C49.2078 5.844 49.1798 5 49.1238 4.208C49.1318 4.096 49.1878 3.968 49.2918 3.824C49.4038 3.68 49.5438 3.6 49.7118 3.584C49.8958 3.584 50.1878 3.552 50.5878 3.488C51.0038 3.424 51.3198 3.392 51.5358 3.392C52.1918 3.392 52.6998 3.456 53.0598 3.584C53.4278 3.712 53.7958 3.924 54.1638 4.22C54.5638 4.844 54.7638 5.284 54.7638 5.54C54.7638 6.076 54.6558 6.552 54.4398 6.968C54.2238 7.384 53.9078 7.708 53.4918 7.94C53.0758 8.172 52.5798 8.288 52.0038 8.288ZM51.7278 4.412C51.4718 4.412 51.2478 4.428 51.0558 4.46C50.8718 4.484 50.6478 4.528 50.3838 4.592C50.4158 5.328 50.4318 5.864 50.4318 6.2C50.4318 6.544 50.4198 6.832 50.3958 7.064C50.7398 7.136 51.0118 7.184 51.2118 7.208C51.4118 7.224 51.6358 7.232 51.8838 7.232C52.4758 7.232 52.8918 7.08 53.1318 6.776C53.3798 6.464 53.5038 6.104 53.5038 5.696C53.5038 5.576 53.4678 5.428 53.3958 5.252C53.3238 5.076 53.2598 4.96 53.2038 4.904C52.9878 4.712 52.7758 4.584 52.5678 4.52C52.3678 4.448 52.0878 4.412 51.7278 4.412Z" fill="#7743DB"/>
</svg>
